<?xml version="1.0" encoding="utf-8"?>
<!-- Generator: Adobe Illustrator 22.0.1, SVG Export Plug-In . SVG Version: 6.00 Build 0)  -->
<svg width="20" height="20" version="1.1" xmlns="http://www.w3.org/2000/svg" xmlns:xlink="http://www.w3.org/1999/xlink" x="0px" y="0px"
	 viewBox="0 0 212.6 212.6" style="enable-background:new 0 0 212.6 212.6;" xml:space="preserve">
<style type="text/css">
	.st0{fill:#FDB913;}
	.st1{fill:none;stroke:#000000;stroke-width:8;stroke-miterlimit:10;}
</style>
<g id="Layer_4">
	<path class="st0" d="M156.2,41.9c8,9.9,17.8,21.3,24,36.1c11.9,28.6,16.9,68.3-7.1,98.1c-23.9,29.7-79.9,45.9-120.1,13.5
		c-71-57.3-17.1-127.5-17.1-127.5l32.8,26.4c0,0-19.6,28.1-4.3,40.4c15.3,12.3,30.1-4.9,38.9-15.8c9.7-12,9.2-19,5.6-22.1
		c-3.5-3.2-12.1-0.4-20.5,10.4c-8.4,10.9-16.4,33.6-5.2,42.7c11.3,9.1,31.9-1.1,41.8-12.6c9.9-11.5,10.7-18.5,6.4-22.3
		c-4.3-3.8-11.4-1.3-20.7,9.5c-9.3,10.8-20.9,32.7-7.9,42.3c14.5,10.7,32-2.8,41.3-15.4c13.8-18.7,8.6-45.4-5-67.1
		c-13.6-21.6-29.7-34.6-29.7-34.6l30.1-37.3c0,0,1.5-2.2,5.7-1.5c4.3,0.7,22,5.7,22,5.7c1.1-1,5.5-3.8,9.1-1.2
		c4.2,3.1,13.4,10.5,15.6,12.4c2.1,1.9,0.4,8.5,0.4,8.5l6.2,21c0,0,1.4,1.8-1.8,5.8c-3.3,4.1-16.5,20.5-16.5,20.5"/>
</g>
<g id="Layer_2">
	<path class="st1" d="M156.2,41.9c8,9.9,17.8,21.3,24,36.1c11.9,28.6,16.9,68.3-7.1,98.1c-23.9,29.7-79.9,45.9-120.1,13.5
		c-71-57.3-17.1-127.5-17.1-127.5l32.8,26.4c0,0-19.6,28.1-4.3,40.4c15.3,12.3,30.1-4.9,38.9-15.8c9.7-12,9.2-19,5.6-22.1
		c-3.5-3.2-12.1-0.4-20.5,10.4c-8.4,10.9-16.4,33.6-5.2,42.7c11.3,9.1,31.9-1.1,41.8-12.6c9.9-11.5,10.7-18.5,6.4-22.3
		c-4.3-3.8-11.4-1.3-20.7,9.5c-9.3,10.8-20.9,32.7-7.9,42.3c14.5,10.7,32-2.8,41.3-15.4c13.8-18.7,8.6-45.4-5-67.1
		c-13.6-21.6-29.7-34.6-29.7-34.6l30.1-37.3c0,0,1.5-2.2,5.7-1.5c4.3,0.7,22,5.7,22,5.7c1.1-1,5.5-3.8,9.1-1.2
		c4.2,3.1,13.4,10.5,15.6,12.4c2.1,1.9,0.4,8.5,0.4,8.5l6.2,21c0,0,1.4,1.8-1.8,5.8c-3.3,4.1-16.5,20.5-16.5,20.5"/>
</g>
</svg>
