<?xml version="1.0" encoding="utf-8"?>
<!-- Generator: Adobe Illustrator 27.3.1, SVG Export Plug-In . SVG Version: 6.00 Build 0)  -->
<svg version="1.1" xmlns="http://www.w3.org/2000/svg" xmlns:xlink="http://www.w3.org/1999/xlink" x="0px" y="0px"
	 viewBox="0 0 1493.3 746.8" style="enable-background:new 0 0 1493.3 746.8;" xml:space="preserve">
<style type="text/css">
	.st0{opacity:0.57;fill:none;stroke:#FFFFFF;stroke-width:18;stroke-miterlimit:10;}
	.st1{fill:#FFFFFF;}
	.st2{display:none;}
	.st3{display:inline;}
	.st4{fill:#DCBB11;}
	.st5{fill:#AAAAAA;}
	.st6{fill:#D5AF0B;}
	.st7{fill:#F1E17A;}
	.st8{fill:#E8D033;}
	.st9{fill:#7F7F7F;}
	.st10{fill:#E3C91C;}
	.st11{fill:#E6CE63;}
	.st12{fill:#F9F1C0;}
	.st13{fill:#F7EDAC;}
	.st14{fill:#EDDA5D;}
	.st15{fill:#F4E899;}
	.st16{fill:#FCF7D9;}
	.st17{fill:#FEFCF2;}
	.st18{fill:#9C9B9B;}
	.st19{fill:#868686;}
	.st20{fill:#1D1D1B;}
	.st21{fill:url(#SVGID_1_);}
	.st22{opacity:0.31;}
	.st23{opacity:0.57;fill:#FFFFFF;}
	.st24{fill:#283544;}
</style>
<g id="Layer_4">
	<g>
		<g>
			<path class="st0" d="M633.7,374.1"/>
			<g>
				<path class="st1" d="M327,37.6c70,0,140,26.9,193.2,80.6c59.3,59.9,85,140.5,77.2,218.3l12.7,13.8c0,0-2.9,7.2,7.1,16.5
					c7.1,6.5,12.3,7.5,14.8,7.5c1.1,0,1.7-0.2,1.7-0.2l20,20.2c0,0,1,10.3,8.7,18.1c7.7,7.8,17,7.8,17,7.8l30.8,32.1l-31,104.5
					l-11.6,41.2l-54.9,53.3l-43.4,12.1l-103.8,30.9l-18-18.1c0,0,3.1-8.2-5.6-16c-8.7-7.8-15.4-8.3-15.4-8.3l-21-20.2
					c0,0-1.5-7.7-8.7-17.1c-4.6-6-10-7.1-13.1-7.1c-1.7,0-2.8,0.3-2.8,0.3l-28.4-28.7l-0.7,0.7c-8.2,0.7-16.4,1.1-24.6,1.1
					c-70,0-140-26.9-193.2-80.6c-105.5-106.7-104.6-278.7,2-384.3C188.9,63.7,258,37.6,327,37.6 M327,19.6
					c-37.4,0-73.8,7-108.3,20.9C183,54.9,150.9,76,123.3,103.3c-27.8,27.5-49.4,59.6-64.1,95.5c-14.3,34.6-21.6,71.3-21.8,108.9
					c-0.2,37.6,6.7,74.3,20.6,109.1c14.4,36,35.6,68.4,63.1,96.2c27.7,28,60.1,49.7,96.2,64.4c34.9,14.3,71.8,21.5,109.7,21.5
					c6.3,0,12.7-0.2,19-0.6l22,22.2l7.5,7.6l7.3-2.1c3.5,4.6,4.7,8.4,5,9.3l0.8,5.9l4.3,3.4l21,20.2l4.6,4.4l5.3,0.4
					c0.7,0.3,2.7,1.1,5.4,3.4l-2.8,7.5l8.2,8.2l18,18.1l7.6,7.7l10.3-3.1l103.7-30.9l43.2-12.1l4.4-1.2l3.3-3.2l54.9-53.3l3.5-3.4
					l1.3-4.7l11.5-41.1l30.9-104.4l3-10l-7.2-7.5l-30.8-32.1l-5.3-5.5l-7.1,0c-0.6-0.1-2.9-0.5-4.8-2.5c-2.7-2.8-3.5-7.1-3.5-7.1
					l-0.6-6.4l-4.5-4.6l-20-20.2l-7.7-7.8l-6.6,2.1c-0.7-0.4-1.6-1.1-2.7-2.2c-0.4-0.3-0.7-0.6-0.9-0.9l2.5-6.2l-7.7-8.4l-7.3-8
					c6-83.5-24-164.9-83-224.6c-27.7-28-60.1-49.7-96.2-64.4C401.8,26.8,364.9,19.6,327,19.6L327,19.6z"/>
			</g>
		</g>
	</g>
</g>
<g id="Layer_1">
	<g class="st2">
		<g class="st3">
			<path class="st1" d="M924.8,276.6c0,132.7,0,265.4,0,398c-147,0-294,0-441.1,0c0-211.4,0-422.8,0-634.1c147,0,294,0,441.1,0
				c0,68.6,0,137.2,0,205.8c-1.7-3.9-1.1-8.1-1.9-12.1c-0.8-3.9-0.7-8-2-11.8c0-0.5,0.1-1.1,0-1.6c-3.4-17.3-8.5-34.2-15.9-50.3
				c-4.9-10.7-10.3-21.1-16.9-30.9c-14.2-21.1-31.1-39.7-51.9-54.6c-9.2-6.6-18.7-12.9-28.9-18.2c-14.4-7.5-29.5-13.4-45.2-17.8
				c-13.9-3.9-28.1-6.4-42.5-7.2c-7.9-0.4-15.9-0.8-23.9-0.4c-10.5,0.6-21,1.6-31.3,3.4c-18.3,3.2-35.9,8.8-52.7,16.7
				c-27.9,13.1-52.2,31.1-72.5,54.3c-15.4,17.5-28.1,36.8-37.1,58.3c-6.6,15.7-11.9,31.9-14.7,48.9c-1.3,8.1-2.3,16.3-2.9,24.5
				c-0.6,7.7-0.1,15.5,0,23.2c-0.2,5.3,0.8,10.5,1.2,15.8c0.4,6.2,1.3,12.3,2.8,18.2c0.4,1.6-0.9,3.6,1,4.8
				c0.8,5.7,2.5,11.2,4.3,16.7c2.1,6.5,4.5,12.9,6.8,19.4c4.7,10.4,9.7,20.5,15.6,30.3c4.6,7.5,9.2,14.9,15.1,21.4
				c3.4,6.1,8.4,10.8,13.2,15.8c6.5,6.7,12.7,13.7,20.4,19c0,0.4-0.1,0.7-0.1,1.1c-1.5,0.3-1.3,1.5-1.2,2.5c0,4.2,0.1,8.4,0.1,12.7
				c-0.3,1.2,0.5,2,0.9,3c2.2,5.5,3.4,10.9,1.2,16.8c-0.9,2.5-3,4.8-2.1,7.9c0,7.8-0.3,15.6,0.2,23.3c-0.5,2.2,0.3,4,1.3,5.9
				c2.5,4.8,3.1,9.8,1.6,15.1c-0.8,2.8-3.1,4.9-3,7.9c0,11.9-0.1,23.8-0.1,35.8c0,0.8-0.3,1.8,0.8,2.2c3.5,1.2,6.4,3.5,9.6,5.1
				c13,6.3,25.4,13.7,38.3,20.3c9.4,4.8,18.4,10.4,28.1,14.8c1.6,2.1,4.1,2.7,6.2,4c6.8,4.1,14,7.2,20.8,11.3
				c2.8,1.7,5.9,2.9,9.6,2.8c17.7-0.2,35.4-0.1,53.1-0.1c1.1,0,2.2,0.2,3.4-0.4c10.7-5.3,21.2-10.9,31.5-17c0.5,0.2,1,0.2,1.5-0.1
				c6.6-3.6,13.1-7.3,19.7-10.9c18.3-9.9,36.7-19.7,55-29.5c1.1-0.6,2.2-1.1,2.2-2.5c-0.2-5.9,0.7-11.8-0.5-17.6
				c1.5-2.3-0.3-3.9-1.5-5.4c-2.3-2.9-3.3-6.2-3.6-9.8c-0.4-4.7,0.9-8.9,2.7-13.1c1.8-0.7,2.5-2.2,2.6-4c0-6.4-0.1-12.9-0.1-19.3
				c0.7-1.6-0.5-2.6-1.3-3.7c-2.8-4.2-4.3-8.7-3.9-13.9c0.4-3.9,2.4-7.2,3.9-10.8c1.1-0.4,1.4-1.3,1.3-2.3
				c-0.4-10.4,1-20.8,0.2-31.1c4.4-3.5,8.6-7,12.5-11.1c0.9-0.9,1.6-2,2.6-2.7c4.6-3.2,8-7.7,11.6-11.8c4.8-5.6,9.9-10.9,13.7-17.3
				c3.2-5.4,7.4-10.1,10.2-15.8c4.5-7.5,8.4-15.2,12-23.1c2.3-5,4.5-10.2,6.1-15.6c4.2-12.1,7.8-24.3,9.7-37
				c0.5-3.3,1.6-6.6,1.2-10.1C923.9,284.4,922.5,280.2,924.8,276.6z"/>
			<path class="st4" d="M920.9,222.4c1.2,3.8,1.2,7.9,2,11.8c0.8,4,0.2,8.2,1.9,12.1c0,10.1,0,20.2,0,30.3
				c-2.3,3.6-0.9,7.8-2.1,11.6c-2.2-0.8-2.4-3-2.8-4.7c-1.6-7.1-2.7-14.2-4-21.3c-1.9-11.1-6.2-20.9-12.2-30.3
				c-1.8-2.8-4.4-5-5.5-8.2c-3.1-8.6-6-17.2-9.6-25.5c-5.5-12.5-12.3-24.2-20.8-34.9c-4-5.1-8.3-10.1-11.9-15.5
				c-4.1-6-8.8-11.4-13.5-17c-0.7-0.9-1.5-1.9-2.8-1.9c-0.2-0.2-0.4-0.4-0.6-0.6c-0.6-2.9-4.8-7.2-7.7-7.7c-0.9-0.4-1.5-1.1-1.9-1.9
				c-0.3-1.8-1.4-2.9-3.2-3.2c-0.2,0-0.4,0-0.6,0c-0.1-1.7-1.2-2-2.6-1.9c-1.7-1.3-3.1-3.1-5.2-3.9c-1.3-3.2-4.1-4.3-7.1-5.2
				c-0.2,0-0.4,0-0.6,0c-1.1-2.6-3.2-3.5-5.8-3.9c-3.7-1.7-7.3-3.4-11-5.2c-1-2.3-3-2.6-5.2-2.6c-2.1-0.6-4.3-1.3-6.4-1.9
				c-0.8-1.8-2.2-1.9-3.9-1.3c-0.4,0-0.9,0-1.3,0c-0.1-0.8-0.3-1.6-1.3-0.6c-0.4,0-0.9,0-1.3,0c-0.1-0.9-0.7-1.1-1.5-1.3
				c-4-1.2-7.9-2.2-12.1-2.7c-3.6-0.4-7.3-1.3-11-1.4c-8.1-0.3-16,3.9-24.2,1.6c-0.2-0.1-0.4,0-0.6,0c-5.2,0.7-10.3,0.9-15.4-0.5
				c-1.3-0.4-2.8-0.2-4.2,0c-6.1,0.8-12.3,0.8-18.5,1.7c-5.8,0.8-11.6,0.8-17.2,2.8c-2.2,0.8-4.6,1.5-6.8,1.7
				c-7.2,0.6-13.5,4.2-20.5,5.4c-3.6,0.6-6.1,3.5-9.7,3.7c-1.6,0.1-2.8,0.7-4.2,1.4c-5.5,2.8-11.2,5.3-16.7,8.1
				c-3,1.5-6.2,3-8.9,5.1c-7.3,5.5-15.2,10.3-22.1,16.4c-6.2,5.4-12.5,10.7-18.1,16.7c-5.1,5.5-10,11.2-14.5,17.1
				c-4.8,6.4-10.6,12.1-13.5,19.8c-0.7,1.9-1.5,3.8-2.5,5.6c-10.1,19-16.1,39.4-21,60.1c-0.4,1.6-1.1,2.2-2.6,2.1
				c-1.2-0.5-0.1-2.8-1.7-2.6c-1.3,0.1-1.3,1.7-1.7,2.8c-2.5,6.8-2.1,14-2.6,21.1c-2.5,0.4-1.9,2.7-2.3,4.1c-1.5,6-1.8,12.3-4.8,18
				c-1.4,2.8-2.8,5.9-3.5,9.2c-0.3,1.5,0.2,4-2.2,4.9c-1.9-1.2-0.6-3.2-1-4.8c-1.5-5.9-2.3-12-2.8-18.2c-0.4-5.3-1.4-10.5-1.2-15.8
				c1.2-0.1,1.8-0.8,2-1.8c0.6-3.1,3.2-5.4,3.8-8.6c0.4-2.1,1.9-4.8,3.7-5.6c3.5-1.6,3.6-4.6,4.5-7.4c1.7-5.2,3.2-10.4,5.4-15.4
				c1.2-2.6,2.4-5.1,2.8-7.8c0.7-5.1,2.3-10,3.8-14.9c3-9.7,7.3-18.9,10.9-28.4c3.4-9,7.7-17.4,12.8-25.5
				c8.1-12.8,18.4-23.8,29.2-34.4c7.1-6.9,14.8-13,22.7-18.9c7.4-5.5,15.3-10,23.4-14.4c9.9-5.4,20.2-9.9,30.9-13.5
				c12-4,24.2-7.6,37-8.9c7.8-0.8,15.6-2.3,23.5-2.3c7.4,0,14.9-0.4,22.3,0.2c7,0.5,13.9,1.9,20.9,2.9c13.1,1.9,25.6,5.6,37.9,10.2
				c9.3,3.4,18.4,7.6,27.2,12.4c14.9,8.1,28.5,17.7,40.9,29.1c6.2,5.7,12.2,11.7,17.7,18.2c5.6,6.6,10,14,14.9,21.1
				c3.9,5.7,6.3,12.1,9.8,18c2.8,4.5,4.9,9.5,7.2,14.3c5.1,10.8,10.1,21.7,15.2,32.5c0.3,0.7,1,1.9,1.4,1.5
				C917.7,221.8,919.5,223.3,920.9,222.4z"/>
			<path class="st5" d="M842.8,546.2c1.2,5.9,0.3,11.8,0.5,17.6c0.1,1.4-1.1,1.9-2.2,2.5c-18.3,9.8-36.7,19.7-55,29.5
				c-6.6,3.6-13.2,7.2-19.7,10.9c-0.5,0.3-1,0.3-1.5,0.1c-6.7-0.7-13.4-0.6-20.2-0.6c-34.8,0-69.6,0-104.3-0.1
				c-9.7-4.4-18.7-10-28.1-14.8c-12.9-6.6-25.3-14-38.3-20.3c-3.2-1.6-6.1-3.9-9.6-5.1c-1.1-0.4-0.8-1.4-0.8-2.2
				c0-11.9,0.1-23.8,0.1-35.8c3.3-0.4,6.6-0.8,9.8-1.2c9.5-1.1,19.1-2.2,28.6-3.3c11.3-1.4,22.6-3.1,33.9-4.3
				c10.5-1.1,21-2.6,31.5-3.5c11.5-1,23-2.9,34.5-4.4c7.6-1,15.3-1.8,22.9-2.7c8.1-1,16.3-2.1,24.4-3.1c7.8-1,15.7-1.9,23.5-2.8
				c8-1,16.1-2,24.1-3c8-1,16.1-2.1,24.1-2.9c7.2-0.7,14.4-2.2,21.6-2.2c0,6.4,0.1,12.9,0.1,19.3c0,1.8-0.8,3.3-2.6,4
				c-2.3-1.9-4.2,0.6-6.3,0.7c-6.2,0.4-12.3,1.2-18.4,2c-8,1-16.1,2.1-24.1,3.1c-7.8,1-15.7,1.8-23.5,2.7c-11.7,1.4-23.5,3-35.2,4.4
				c-7.8,1-15.7,1.8-23.5,2.7c-8.3,1-16.5,2.1-24.8,3.1c-7.8,0.9-15.7,1.8-23.5,2.7c-9.6,1.2-19.2,2.5-28.9,3.7
				c-11.6,1.4-23.3,2.7-34.9,4.1c1.2,0.5,2.5,0.5,3.7,0.5C681.6,546.7,762.2,549.2,842.8,546.2z"/>
			<path class="st6" d="M920.9,222.4c-1.4,0.9-3.3-0.6-4.7,0.9c-0.4,0.4-1.1-0.8-1.4-1.5c-5.1-10.8-10.1-21.7-15.2-32.5
				c-2.3-4.8-4.4-9.8-7.2-14.3c-3.6-5.8-6-12.3-9.8-18c-4.8-7.1-9.3-14.5-14.9-21.1c-5.5-6.5-11.4-12.5-17.7-18.2
				c-12.4-11.4-26.1-21.1-40.9-29.1c-8.8-4.8-17.9-8.9-27.2-12.4c-12.3-4.5-24.9-8.3-37.9-10.2c-6.9-1-13.9-2.4-20.9-2.9
				c-7.4-0.6-14.9-0.2-22.3-0.2c-7.9,0-15.7,1.6-23.5,2.3c-12.8,1.3-25,4.9-37,8.9c-10.6,3.5-21,8-30.9,13.5
				c-8.1,4.4-16,8.9-23.4,14.4c-7.9,5.9-15.6,12-22.7,18.9c-10.8,10.6-21.1,21.5-29.2,34.4c-5.1,8.1-9.4,16.5-12.8,25.5
				c-3.6,9.5-7.8,18.7-10.9,28.4c-1.5,4.9-3.1,9.8-3.8,14.9c-0.4,2.7-1.7,5.2-2.8,7.8c-2.2,4.9-3.7,10.2-5.4,15.4
				c-0.9,2.8-1.1,5.8-4.5,7.4c-1.8,0.8-3.3,3.5-3.7,5.6c-0.6,3.3-3.2,5.5-3.8,8.6c-0.2,1-0.9,1.7-2,1.8c0-7.7-0.6-15.5,0-23.2
				c0.7-8.2,1.6-16.3,2.9-24.5c2.7-17,8-33.2,14.7-48.9c9.1-21.5,21.8-40.8,37.1-58.3c20.3-23.2,44.6-41.2,72.5-54.3
				c16.8-7.9,34.4-13.5,52.7-16.7c10.4-1.8,20.8-2.8,31.3-3.4c8-0.4,16-0.1,23.9,0.4c14.3,0.8,28.6,3.3,42.5,7.2
				c15.7,4.4,30.7,10.3,45.2,17.8c10.1,5.3,19.6,11.6,28.9,18.2c20.7,14.9,37.7,33.4,51.9,54.6c6.6,9.8,12,20.2,16.9,30.9
				c7.3,16.1,12.5,32.9,15.9,50.3C921,221.3,920.9,221.9,920.9,222.4z"/>
			<path class="st7" d="M855.7,421.7c-3.8,4-8.1,7.6-12.5,11.1c-0.3,0-0.6,0-0.9-0.1c-2.8,0-5.6,0-8.4-0.1c1.4-4.9,4.6-8.9,7-13.3
				c5.9-10.5,7.7-22.4,10.9-33.7c4.2-15.1,5.8-30.5,5.3-46.2c-0.2-6.2,0.2-12.4-0.7-18.6c-2.2-13.9-4.8-27.7-9.6-41.1
				c-6.2-16.9-14.5-32.6-25-47.2c-0.7-1-1.8-2-1.2-3.1c0.7-1.4,2.4-1.6,3.7-1.1c2.9,1,5.9,0.4,8.9,1c2.9,0.6,6,0.3,8.9-0.6
				c3.3-1,4-2.8,2.3-5.8c-1.3-2.2-3.1-4.1-4.5-6.2c-4.6-6.9-9.7-13.3-15.5-19.1c-3.1-3.2-6.1-6.5-9.2-9.7c-1.8-1.9-1.1-2.7,1-3.2
				c3.2-0.6,6.5-1.1,9.7-1.8c4.6-0.9,9.3-1.4,13.5-3.8c3.7-2.1,4-4.6,1.8-8.1c-1.9-3-5-4.3-7.4-6.5c-8.9-8.2-19.4-14.1-30.3-19.1
				c-7.3-3.3-15.4-4.8-23.7-4.6c-7.5,0.2-13.3,3.3-18.1,8.8c-1.3,1.5-2,3.4-1.1,5.1c3.8,7.2,2.9,15.5,5.4,23
				c0.4,1.3,0.9,3.2-0.5,4.2c-1.3,0.9-2.9,0.2-4.3-0.5c-13.3-7.1-27.7-10.2-42.5-11.3c-14.2-1-28.4-0.3-42.4,3.4
				c-10.4,2.8-20.1,7.1-29.7,11.9c-13.1,6.6-24.8,15.3-35.2,25.5c-11.2,11-20.8,23.3-28.4,37.1c-4.6,8.3-8.8,16.7-12.1,25.6
				c-3.9,10.4-7.1,21-9.1,32c-1.7,9.3-2.7,18.5-3.4,27.9c-0.4,5.6,0.5,11.1,0.1,16.6c-0.1,1.7,0.4,3.5,0.4,5.1
				c-0.1,4.1,2,8.2,0.2,12.4c-0.8-0.4-1.1-1.2-1.6-2c-2.9-5-5.8-10-8.7-14.9c-0.4-1.1-0.9-2.1-1.3-3.2c-1.3-3.1-3.8-5.6-4.5-9
				c0.7-0.1,1.2-0.4,1.3-1.2c0.4-4.6,1.2-9.1,1.3-13.7c0.1-7.4,1.1-14.7,2.7-21.9c2.9-13.4,6.5-26.6,12.1-39.2
				c2.8-6.2,6.3-12.1,8.4-18.7c0.2-0.7,0.9-1.2,1.3-1.8c3.2-4.7,6.4-9.3,9.4-14c2.4-3.8,4.2-8.1,7.1-11.4c7.1-8,14.1-16,22.2-23.2
				c9.4-8.3,19.7-15,30.6-20.9c6.5-3.5,13.5-6.1,20.4-8.7c12.1-4.6,24.6-7.6,37.4-8.4c19.4-1.3,38.5,0.7,56.9,7.4
				c1.5,0.5,3.3,1.7,4.5-0.5c1-1.9,0.1-3.5-1.1-5c-1-1.1-2.1-2.1-3.2-3.2c-5.7-5.7-11.5-11.3-15.4-18.5c-2.5-4.6-5.5-9-5.7-14.4
				c-0.2-4.5,0.4-5.1,4.9-4.6c10.2,1.2,19.8,4.4,29.4,7.8c7.8,2.7,15.2,6.2,22.7,9.7c6.9,3.2,13.9,6.1,20.6,9.7
				c9.7,5.2,18.8,11.5,27.2,18.7c4.6,3.9,8.5,8.1,8.9,14.6c0.1,2,0.2,4.4,1.7,6.1c3,3.2,4.9,7,7.2,10.6c4,6.5,6.9,13.4,6.4,21.5
				c-0.4,7.2-4.5,13.3-11.3,15.6c-1.8,0.6-3.4,1.8-5.1,2.7c-1.8,1-1.9,2.3-0.8,4c3.3,5.1,6.3,10.4,8.8,16
				c6.6,14.7,11.8,29.8,14.9,45.6c2.4,12.5,4.6,25,4.4,37.8c-0.1,5.6,0.1,11.2-0.2,16.8c-0.4,6.7-1.2,13.4-1.8,20.1
				c-0.6,0.1-1,0.3-1.3,0.8c-3.3,4.7-5.7,9.8-7,15.4c-1.3,5.8-2.6,11.7-4.5,17.3c-1.3,3.9-2.9,7.8-4.3,11.7
				C853.7,420.6,853.6,421.8,855.7,421.7z"/>
			<path class="st5" d="M842.3,432.7c0.3,0,0.6,0,0.9,0.1c0.7,10.4-0.6,20.8-0.2,31.1c0,1-0.3,1.9-1.3,2.3c-2.4-1.2-4.5,0.5-6.8,0.7
				c-6.2,0.5-12.3,1.3-18.5,2c-8.5,1-17,1.8-25.4,3.2c-6.3,1.1-12.6,0.7-18.9,2.2c-4.7,1.1-9.8,1.1-14.6,1.7
				c-11.4,1.4-22.8,3-34.3,4.4c-9.8,1.2-19.7,2.2-29.6,3.4c-11.4,1.4-22.9,2.8-34.3,4.4c-10.3,1.4-20.6,1.7-30.8,3.7
				c-7.3,1.4-15,0.7-22.2,2.7c-0.3,0.1-0.7,0-1,0c-6.4,1.4-13,0.9-19.4,2.2c-7.2,1.4-14.6,1.6-21.9,2.4c-0.4-7.8-0.2-15.6-0.2-23.3
				c5.6,0.3,11.1-1,16.6-1.6c9.7-1,19.3-2.4,28.9-3.5c8.1-1,16.1-1.8,24.2-2.8c7.7-0.9,15.4-2.1,23.2-3c9.9-1.2,19.7-2.2,29.6-3.4
				c10.3-1.2,20.6-2.5,30.8-3.8c7.6-0.9,15.3-1.8,22.9-2.8c9.9-1.2,19.7-2.5,29.5-3.7c7.9-1,15.8-1.9,23.7-2.8c0-0.1,0-0.3,0-0.4
				c-1.8,0-3.6,0-5.4,0c-43.7,0-87.4,0-131.2,0c-30.9,0-61.9,0-92.8,0c0-4.2-0.1-8.4-0.1-12.7c0-1-0.2-2.2,1.2-2.5
				c15.7,0.4,31.4,0.3,47.1,0.1c8.8,0,17.7,0,26.5,0c19.9,0,39.7,0.1,59.6,0.1c22.9,0,45.7-0.1,68.6-0.1c12.2,0,24.5,0,36.7,0
				c12.3,0,24.7,0,37,0.1C841.2,433.3,841.8,433.2,842.3,432.7z"/>
			<path class="st8" d="M839,128.2c0.2,0.2,0.4,0.4,0.6,0.6c0.1,0.4,0.1,0.9,0.4,1.2c4.3,4.7,7.5,10,10.3,15.7
				c3.8,7.6,5,15.6,3.8,24c-0.3,2.5-1.9,5.3-0.1,7.7c2.8,3.8,5.5,7.6,8.1,11.5c5.6,8.4,11.3,16.6,16.1,25.4
				c5.8,10.8,11.2,21.7,15.2,33.2c1.9,5.6,4.9,10.7,6.3,16.5c2.5,10.4,3.5,21.1,6.7,31.4c2.3,7.1,2.2,14.9,2.8,22.5
				c0.4,5.3,0.9,10.6,1.3,16c0.1,0.8,0.5,1.1,1.2,1.3c-1.5,5.4-3.7,10.5-6.1,15.6c-3.6,7.9-7.5,15.7-12,23.1c-2-0.4-1.3-2.1-1.2-3.1
				c0.8-9.9,0.7-19.8-0.7-29.7c-0.1-6.7,0-13.4-1.1-20.2c-2-11.2-3.2-22.6-5.9-33.7c-2.7-10.8-6.7-21.2-10.3-31.7
				c-2.8-8.2-7-15.8-10.8-23.6c-0.8-1.6-1.1-3.1-0.4-4.9c3.4-8.4,3.5-16.6,0-25.2c-3.2-7.5-6.5-15-11.8-21.2
				c-3.2-3.8-3.7-7.4-2-11.5c1.5-3.8,1.4-7.6,0.6-11.4c-2-10.2-7.4-18.8-14.3-26.5c-10.8-12.1-23.6-21.7-38.2-28.9
				c-11.9-5.9-24.2-10.6-37.7-11.9c-7.1-0.7-13.9-0.3-20.4,2.2c-9.7,3.7-15.2,14.9-11.8,24.7c1.4,4,2.5,8.2,4.2,12.1
				c0.8,1.9,0.3,4-0.5,5.5c-0.9,1.6-2.8,0.7-4.4,0.4c-2.2-0.4-4.4-0.7-6.7-0.8c-15.4-0.6-30.9,0-46,3.4
				c-23.4,5.2-44.5,15.6-63.8,29.8c-6.7,5-12.7,10.8-19,16.3c-7.1,6.3-13.4,13.3-18.8,20.9c-5,7-9.5,14.1-14,21.4
				c-6.9,11.2-12.3,23-16.9,35.2c-2.9,7.7-5.2,15.6-7.4,23.5c-1.5,5.6-3.2,11.3-3.7,17.2c-0.2,2-0.5,3.8-2,5.2
				c-1.9-2.6-2.6-5.7-4-8.5c0.1-1.3-0.8-2.2-1.2-3.3c-3.3-7.8-6.4-15.7-8.9-23.9c2.1,0.2,2.5-1.5,2.9-2.8c3.1-8.9,6.3-17.7,9.7-26.5
				c2.1-5.4,4.9-10.4,7.5-15.6c2.8-5.6,6-11,8.9-16.5c1.9-3.6,3.8-7.1,6.3-10.3c5-6.5,9.5-13.5,15.2-19.4
				c4.7-4.9,8.4-10.5,13.8-14.8c6.3-5,12.2-10.4,18.5-15.4c7.6-6,15.8-11,24-16c9.9-5.9,20.7-10.3,31.7-13.8
				c13.5-4.3,27.4-6.9,41.5-8.3c6.8-0.7,13.5-0.9,20.2-0.3c6.7,0.6,7.5-1.8,8.8-6.5c1.4-5.5,4.4-10,8.7-13.5
				c5.2-4.3,11.6-5.6,18.2-6.1c7.9-0.5,15.7,1,23.4,2.6c0.4,0,0.9,0,1.3,0c0.3,0.5,0.8,0.6,1.3,0.6c0.4,0,0.9,0,1.3,0
				c1,1.3,2.4,1.4,3.9,1.3c2.1,0.6,4.3,1.3,6.4,1.9c1.3,1.7,3.1,2.5,5.2,2.6c3.7,1.7,7.3,3.4,11,5.2c1.2,2.4,3.8,2.7,5.8,3.9
				c0.2,0,0.4,0,0.6,0c1.7,2.6,4.4,3.9,7.1,5.2c2.1,0.8,3.4,2.6,5.2,3.9c0.6,1,1.3,1.9,2.6,1.9c0.2,0,0.4,0,0.6,0
				c0.4,1.8,1.4,2.9,3.2,3.2c0.4,0.9,1.1,1.5,1.9,1.9C833.6,123.3,836.2,125.9,839,128.2z"/>
			<path class="st9" d="M563.9,499.2c7.3-0.7,14.8-0.9,21.9-2.4c6.5-1.3,13-0.9,19.4-2.2c0.3-0.1,0.7,0.1,1,0
				c7.3-2,14.9-1.3,22.2-2.7c10.2-2,20.6-2.3,30.8-3.7c11.4-1.6,22.8-3,34.3-4.4c9.8-1.2,19.7-2.2,29.6-3.4
				c11.4-1.4,22.8-3,34.3-4.4c4.9-0.6,9.9-0.5,14.6-1.7c6.2-1.5,12.6-1.2,18.9-2.2c8.4-1.4,16.9-2.2,25.4-3.2
				c6.1-0.7,12.3-1.5,18.5-2c2.3-0.2,4.4-1.9,6.8-0.7c-1.5,3.5-3.5,6.8-3.9,10.8c-0.5,5.1,1.1,9.7,3.9,13.9c0.7,1.1,2,2.1,1.3,3.7
				c-7.3,0.1-14.4,1.5-21.6,2.2c-8.1,0.8-16.1,1.9-24.1,2.9c-8,1-16.1,2-24.1,3c-7.8,1-15.7,1.9-23.5,2.8c-8.1,1-16.3,2.1-24.4,3.1
				c-7.6,0.9-15.3,1.8-22.9,2.7c-11.5,1.5-23,3.4-34.5,4.4c-10.5,0.9-21,2.4-31.5,3.5c-11.3,1.2-22.6,2.9-33.9,4.3
				c-9.5,1.2-19.1,2.2-28.6,3.3c-3.3,0.4-6.6,0.8-9.8,1.2c-0.1-3.1,2.2-5.2,3-7.9c1.5-5.3,0.9-10.3-1.6-15.1
				C564.2,503.2,563.4,501.4,563.9,499.2z"/>
			<path class="st9" d="M842.8,546.2c-80.6,3-161.3,0.5-241.9,1.3c-1.2,0-2.4,0-3.7-0.5c11.6-1.3,23.3-2.6,34.9-4.1
				c9.6-1.2,19.2-2.5,28.9-3.7c7.8-1,15.7-1.8,23.5-2.7c8.3-1,16.5-2.1,24.8-3.1c7.8-0.9,15.7-1.8,23.5-2.7
				c11.7-1.4,23.5-3,35.2-4.4c7.8-1,15.7-1.8,23.5-2.7c8-1,16.1-2.1,24.1-3.1c6.1-0.7,12.3-1.6,18.4-2c2.1-0.2,4-2.6,6.3-0.7
				c-1.8,4.2-3.1,8.5-2.7,13.1c0.3,3.6,1.3,6.9,3.6,9.8C842.5,542.3,844.3,543.9,842.8,546.2z"/>
			<path class="st9" d="M563.8,448.2c30.9,0,61.9,0,92.8,0c43.7,0,87.4,0,131.2,0c1.8,0,3.6,0,5.4,0c0,0.1,0,0.3,0,0.4
				c-7.9,0.9-15.8,1.9-23.7,2.8c-9.9,1.2-19.7,2.5-29.5,3.7c-7.6,0.9-15.3,1.8-22.9,2.8c-10.3,1.2-20.5,2.5-30.8,3.8
				c-9.9,1.2-19.7,2.2-29.6,3.4c-7.7,0.9-15.4,2.1-23.2,3c-8.1,1-16.1,1.8-24.2,2.8c-9.6,1.2-19.3,2.5-28.9,3.5
				c-5.5,0.6-11,1.9-16.6,1.6c-0.9-3,1.1-5.4,2.1-7.9c2.2-5.9,1.1-11.4-1.2-16.8C564.3,450.2,563.5,449.4,563.8,448.2z"/>
			<path class="st10" d="M911.8,335.3c-0.7-0.1-1.1-0.5-1.2-1.3c-0.4-5.3-0.9-10.6-1.3-16c-0.6-7.6-0.5-15.4-2.8-22.5
				c-3.3-10.3-4.2-21-6.7-31.4c-1.4-5.8-4.4-10.9-6.3-16.5c-4-11.6-9.4-22.5-15.2-33.2c-4.8-8.9-10.5-17.1-16.1-25.4
				c-2.6-3.9-5.3-7.8-8.1-11.5c-1.9-2.5-0.3-5.2,0.1-7.7c1.2-8.4,0-16.4-3.8-24c-2.8-5.7-6-11-10.3-15.7c-0.3-0.3-0.3-0.8-0.4-1.2
				c1.4,0,2.1,1,2.8,1.9c4.6,5.5,9.4,10.9,13.5,17c3.6,5.4,7.9,10.4,11.9,15.5c8.5,10.7,15.3,22.4,20.8,34.9
				c3.6,8.3,6.5,17,9.6,25.5c1.2,3.2,3.8,5.4,5.5,8.2c5.9,9.4,10.2,19.2,12.2,30.3c1.2,7.1,2.4,14.3,4,21.3c0.4,1.8,0.6,3.9,2.8,4.7
				c0.4,3.5-0.7,6.7-1.2,10.1C919.6,310.9,916,323.2,911.8,335.3z"/>
			<path d="M640.4,606.2c34.8,0,69.6,0,104.3,0.1c6.7,0,13.5-0.2,20.2,0.6c-10.3,6-20.8,11.6-31.5,17c-1.2,0.6-2.3,0.4-3.4,0.4
				c-17.7,0-35.4-0.1-53.1,0.1c-3.6,0-6.8-1.1-9.6-2.8c-6.8-4.1-14-7.3-20.8-11.3C644.6,608.9,642,608.3,640.4,606.2z"/>
			<path class="st8" d="M531.4,397.2c-5.9-6.5-10.5-13.9-15.1-21.4c-6-9.7-11-19.9-15.6-30.3c1.4,0.1,2-0.6,1.7-1.9
				c-0.2-0.7-0.3-1.4-0.1-2.2c2.4-9.5,3.3-19.2,3.5-29c0-1.8-0.1-3.8,1.8-5c2.4,7.4,4.6,14.9,7.5,22.1c1.3,3.2,2,6.7,4.2,9.6
				c2.8,6,5.6,12,8.4,18c-0.9,1-1.5,2.3-1.2,3.5c1.8,5.6,1.4,11.6,2.8,17.3c1.3,5.6,2,11.3,3.5,16.8
				C532.9,395.8,532.9,397,531.4,397.2z"/>
			<path class="st11" d="M891.9,341.1c1.4,9.9,1.6,19.8,0.7,29.7c-0.1,1.1-0.8,2.7,1.2,3.1c-2.7,5.7-7,10.4-10.2,15.8
				c-3.8,6.4-8.9,11.8-13.7,17.3c-3.6,4.2-7,8.6-11.6,11.8c-1,0.7-1.8,1.8-2.6,2.7c-2.1,0.1-2-1.1-1.5-2.5c1.4-3.9,2.9-7.8,4.3-11.7
				c1.9-5.7,3.2-11.5,4.5-17.3c1.2-5.5,3.7-10.7,7-15.4c0.3-0.5,0.8-0.7,1.3-0.8c0.6,0.1,1.2,1.8,1.7,0.7c1.1-2.9,4.5-4,5-7.4
				c0.8-5,3.3-9.7,5.7-13.8c2.4-4,5.3-7.9,7.4-12.2C891.1,341.2,891.6,341.2,891.9,341.1z"/>
			<path class="st11" d="M531.4,397.2c1.6-0.2,1.5-1.4,1.2-2.4c-1.5-5.5-2.2-11.3-3.5-16.8c-1.4-5.7-1-11.7-2.8-17.3
				c-0.4-1.1,0.3-2.5,1.2-3.5c3.5,5.8,7,11.7,10.6,17.4c4.9,7.7,10.1,15.3,16.4,21.9c0.8,1.7,2.8,2.5,3.3,4.4
				c2.5,8.5,5.9,16.6,10.2,24.3c1.3,2.3,2.9,4.5,2.6,7.4c-1.9,0-3.9,0.5-5.8-0.6c-7.7-5.3-14-12.3-20.4-19
				C539.8,408.1,534.8,403.3,531.4,397.2z"/>
			<path class="st10" d="M507.5,307.5c-1.9,1.2-1.8,3.2-1.8,5c-0.2,9.8-1.1,19.5-3.5,29c-0.2,0.8,0,1.4,0.1,2.2
				c0.3,1.4-0.3,2-1.7,1.9c-2.3-6.4-4.7-12.9-6.8-19.4c-1.8-5.5-3.5-11-4.3-16.7c2.4-0.8,1.9-3.4,2.2-4.9c0.7-3.3,2.1-6.4,3.5-9.2
				c3-5.8,3.3-12,4.8-18c0.4-1.4-0.2-3.7,2.3-4.1c0.1,4.6,0.6,9.1,1.1,13.6C504.1,294,506.4,300.6,507.5,307.5z"/>
			<path class="st12" d="M565,432c1.8,1.2,3.8,0.6,5.8,0.6c3.4,0,6.9,0,10.3,0c4.9,0,9.9,0,14.8,0c5.4,0,10.7,0,16.1,0
				c0,0.2,0,0.3,0,0.5c-15.7,0.1-31.4,0.3-47.1-0.1C565,432.7,565,432.3,565,432z"/>
			<path class="st10" d="M773.9,88.8c-7.7-1.6-15.4-3.1-23.4-2.6c-6.6,0.4-13,1.8-18.2,6.1c-4.3,3.5-7.3,8-8.7,13.5
				c-1.2,4.7-2,7.1-8.8,6.5c-6.7-0.6-13.4-0.3-20.2,0.3c-14.1,1.4-28,4.1-41.5,8.3c-11,3.5-21.8,7.8-31.7,13.8
				c-8.2,4.9-16.4,9.9-24,16c-6.3,5-12.2,10.4-18.5,15.4c-5.3,4.3-9.1,10-13.8,14.8c-5.7,5.9-10.2,12.9-15.2,19.4
				c-2.5,3.2-4.4,6.8-6.3,10.3c-2.9,5.5-6.2,10.9-8.9,16.5c-2.6,5.2-5.4,10.2-7.5,15.6c-3.4,8.8-6.6,17.6-9.7,26.5
				c-0.5,1.3-0.8,3.1-2.9,2.8c-2.2-6.6-5.2-13.1-6.5-20c1.5,0.1,2.2-0.5,2.6-2.1c5-20.7,11-41.1,21-60.1c1-1.8,1.7-3.7,2.5-5.6
				c3-7.7,8.7-13.4,13.5-19.8c4.5-6,9.4-11.7,14.5-17.1c5.6-6,11.9-11.3,18.1-16.7c6.9-6.1,14.7-10.9,22.1-16.4
				c2.7-2,5.8-3.5,8.9-5.1c5.5-2.8,11.2-5.4,16.7-8.1c1.4-0.7,2.6-1.3,4.2-1.4c3.6-0.2,6.2-3.1,9.7-3.7c7-1.2,13.3-4.8,20.5-5.4
				c2.2-0.2,4.6-0.9,6.8-1.7c5.6-2,11.4-2,17.2-2.8c6.1-0.9,12.3-0.8,18.5-1.7c1.4-0.2,2.9-0.4,4.2,0c5.1,1.4,10.2,1.3,15.4,0.5
				c0.2,0,0.4-0.1,0.6,0c8.3,2.3,16.1-1.9,24.2-1.6c3.7,0.1,7.3,1,11,1.4c4.2,0.5,8.1,1.5,12.1,2.7
				C773.2,87.7,773.8,87.9,773.9,88.8z"/>
			<path class="st13" d="M508.2,252.1c1.3,6.9,4.3,13.3,6.5,20c2.5,8.1,5.7,16,8.9,23.9c0.4,1.1,1.3,2,1.2,3.3c-2.3-0.3-2.5,1.6-3,3
				c-1.7,5.1-1.7,10.5-2,15.8c-0.4,7.1-0.5,14.2-0.7,21.3c-2.1-2.9-2.9-6.4-4.2-9.6c-2.9-7.2-5-14.7-7.5-22.1
				c-1.1-6.9-3.4-13.5-4.1-20.5c-0.5-4.5-1-9.1-1.1-13.6c0.5-7.1,0.1-14.3,2.6-21.1c0.4-1.1,0.4-2.7,1.7-2.8
				C508.2,249.3,507.1,251.5,508.2,252.1z"/>
			<path class="st10" d="M839,128.2c-2.8-2.3-5.4-4.9-7.7-7.7C834.2,121,838.4,125.3,839,128.2z"/>
			<path class="st10" d="M817.7,109.5c-2.7-1.3-5.4-2.6-7.1-5.2C813.6,105.2,816.4,106.3,817.7,109.5z"/>
			<path class="st10" d="M810,104.3c-2-1.2-4.6-1.4-5.8-3.9C806.8,100.8,808.9,101.7,810,104.3z"/>
			<path class="st10" d="M793.2,95.3c-2.1-0.1-3.9-0.9-5.2-2.6C790.2,92.7,792.2,93,793.2,95.3z"/>
			<path class="st10" d="M829.3,118.5c-1.8-0.3-2.9-1.4-3.2-3.2C827.9,115.6,829,116.7,829.3,118.5z"/>
			<path class="st10" d="M781.6,90.8c-1.5,0.1-2.9,0-3.9-1.3C779.4,88.9,780.8,89,781.6,90.8z"/>
			<path class="st10" d="M825.5,115.3c-1.3,0-2-0.9-2.6-1.9C824.3,113.3,825.4,113.6,825.5,115.3z"/>
			<path class="st10" d="M776.5,89.5c-0.5,0-1-0.1-1.3-0.6C776.2,87.9,776.4,88.7,776.5,89.5z"/>
			<path class="st14" d="M891.9,341.1c-0.3,0.1-0.8,0.1-0.9,0.3c-2.1,4.3-5,8.1-7.4,12.2c-2.4,4.1-4.9,8.8-5.7,13.8
				c-0.5,3.4-3.9,4.5-5,7.4c-0.4,1-1-0.6-1.7-0.7c0.6-6.7,1.4-13.4,1.8-20.1c0.3-5.6,0.1-11.2,0.2-16.8c0.2-12.8-2-25.3-4.4-37.8
				c-3-15.9-8.3-31-14.9-45.6c-2.5-5.5-5.5-10.9-8.8-16c-1.1-1.7-0.9-3,0.8-4c1.7-1,3.3-2.1,5.1-2.7c6.8-2.4,10.9-8.4,11.3-15.6
				c0.4-8-2.4-14.9-6.4-21.5c-2.2-3.6-4.2-7.5-7.2-10.6c-1.5-1.6-1.6-4.1-1.7-6.1c-0.5-6.5-4.3-10.7-8.9-14.6
				c-8.4-7.2-17.5-13.5-27.2-18.7c-6.7-3.6-13.7-6.5-20.6-9.7c-7.5-3.5-14.9-7-22.7-9.7c-9.6-3.4-19.2-6.6-29.4-7.8
				c-4.5-0.5-5.1,0.1-4.9,4.6c0.2,5.5,3.2,9.9,5.7,14.4c3.9,7.1,9.7,12.8,15.4,18.5c1.1,1.1,2.2,2.1,3.2,3.2c1.3,1.4,2.2,3.1,1.1,5
				c-1.2,2.2-3,1-4.5,0.5c-18.4-6.6-37.5-8.6-56.9-7.4c-12.8,0.8-25.3,3.8-37.4,8.4c-6.9,2.6-13.8,5.2-20.4,8.7
				c-11,5.9-21.3,12.5-30.6,20.9c-8,7.2-15.1,15.2-22.2,23.2c-2.9,3.3-4.7,7.6-7.1,11.4c-3.1,4.7-6.3,9.4-9.4,14
				c-0.4,0.6-1.1,1.1-1.3,1.8c-2.2,6.5-5.7,12.4-8.4,18.7c-5.6,12.6-9.2,25.8-12.1,39.2c-1.6,7.2-2.5,14.5-2.7,21.9
				c-0.1,4.6-0.8,9.1-1.3,13.7c-0.1,0.8-0.6,1.1-1.3,1.2c-5-10.1-10.5-20.1-14.2-30.8c1.5-1.4,1.9-3.1,2-5.2
				c0.4-5.9,2.1-11.5,3.7-17.2c2.2-7.9,4.4-15.9,7.4-23.5c4.6-12.2,10-24.1,16.9-35.2c4.5-7.3,9.1-14.5,14-21.4
				c5.5-7.7,11.7-14.7,18.8-20.9c6.3-5.5,12.2-11.3,19-16.3c19.2-14.3,40.4-24.6,63.8-29.8c15.1-3.4,30.5-4,46-3.4
				c2.2,0.1,4.5,0.4,6.7,0.8c1.6,0.3,3.6,1.2,4.4-0.4c0.8-1.5,1.4-3.6,0.5-5.5c-1.7-3.9-2.8-8.1-4.2-12.1
				c-3.3-9.8,2.1-21.1,11.8-24.7c6.5-2.5,13.3-2.8,20.4-2.2c13.5,1.3,25.8,6,37.7,11.9c14.6,7.2,27.4,16.8,38.2,28.9
				c6.8,7.7,12.2,16.2,14.3,26.5c0.7,3.8,0.9,7.6-0.6,11.4c-1.7,4.1-1.2,7.8,2,11.5c5.3,6.2,8.6,13.6,11.8,21.2
				c3.6,8.5,3.4,16.8,0,25.2c-0.7,1.8-0.4,3.3,0.4,4.9c3.7,7.8,8,15.4,10.8,23.6c3.6,10.5,7.6,20.9,10.3,31.7
				c2.7,11.1,3.9,22.5,5.9,33.7C891.9,327.7,891.8,334.3,891.9,341.1z"/>
			<path class="st15" d="M559.2,367.7c1.8-4.1-0.3-8.2-0.2-12.4c0-1.6-0.5-3.4-0.4-5.1c0.4-5.5-0.5-11-0.1-16.6
				c0.7-9.4,1.7-18.6,3.4-27.9c2-11,5.3-21.6,9.1-32c3.3-8.8,7.5-17.3,12.1-25.6c7.6-13.8,17.2-26.1,28.4-37.1
				c10.4-10.2,22.1-18.9,35.2-25.5c9.6-4.8,19.3-9.2,29.7-11.9c13.9-3.7,28.2-4.4,42.4-3.4c14.7,1.1,29.2,4.2,42.5,11.3
				c1.4,0.7,3,1.4,4.3,0.5c1.4-1,0.9-2.9,0.5-4.2c-2.5-7.5-1.6-15.8-5.4-23c-0.9-1.7-0.2-3.6,1.1-5.1c4.8-5.4,10.6-8.6,18.1-8.8
				c8.3-0.2,16.4,1.3,23.7,4.6c10.8,5,21.4,10.9,30.3,19.1c2.4,2.2,5.6,3.5,7.4,6.5c2.2,3.5,1.9,6-1.8,8.1
				c-4.2,2.4-8.9,2.9-13.5,3.8c-3.2,0.6-6.5,1.1-9.7,1.8c-2.2,0.4-2.8,1.3-1,3.2c3.1,3.2,6,6.6,9.2,9.7c5.8,5.9,11,12.2,15.5,19.1
				c1.4,2.1,3.2,4,4.5,6.2c1.7,3,1.1,4.8-2.3,5.8c-2.9,0.9-6,1.2-8.9,0.6c-3-0.6-6-0.1-8.9-1c-1.3-0.4-3-0.3-3.7,1.1
				c-0.6,1.2,0.5,2.2,1.2,3.1c10.5,14.6,18.8,30.3,25,47.2c4.9,13.3,7.5,27.1,9.6,41.1c1,6.2,0.5,12.4,0.7,18.6
				c0.6,15.7-1,31.1-5.3,46.2c-3.2,11.4-5,23.2-10.9,33.7c-2.5,4.4-5.6,8.3-7,13.3c-5.6,0-11.2,0-16.8,0c-0.1-1.4,0.5-2.5,1.3-3.5
				c2.5-3.4,5.3-6.8,7.5-10.4c6-9.5,10.1-19.9,13.5-30.5c3.8-11.8,5.9-24.1,6.5-36.4c0.7-13.7,0.2-27.4-2.8-40.9
				c-2.8-12.6-6.3-25-11.5-37c-9.2-21.3-22.6-39.4-39.6-55c-10.4-9.5-22.1-17.2-34.8-23.2c-14.5-6.8-30-9.8-45.9-10.7
				c-7.4-0.4-14.7,0.7-22,1.8c-15.3,2.4-29.7,7.3-42.8,15.6c-12.8,8.1-24.5,17.5-34.4,29.1c-8.1,9.4-15,19.5-20.8,30.4
				c-6,11.4-10.8,23.3-14.1,35.7c-3.4,13-5.4,26.1-5.9,39.5c-0.4,9.7,0.4,19.4,2,29c1.6,9.6,3.6,19.1,7.1,28.2
				c1.4,3.6,3.7,7.1,3.2,11.3c-0.3-0.2-0.6-0.3-0.8-0.6c-5.6-7.9-11.4-15.7-16.1-24.2C564.4,376.4,561,372.5,559.2,367.7z
				 M820.8,223.1c1.3-0.3,2.5,0.3,3.1-0.7c0.6-1.1-0.3-2.1-1-2.9c-1.3-1.7-2.7-3.4-4.2-4.8c-6.4-6.2-12.3-12.8-19.1-18.6
				c-7.1-6.1-14.9-11-23-15.6c-1-0.6-2.2-1.2-3.3-0.3c-1.1,1-0.9,2.4-0.3,3.6c1.6,3.1,3,6.4,5,9.3c6.8,9.4,14.9,17.4,25,23.1
				C808.7,219.5,814.7,222,820.8,223.1z M806.8,177.2c1,0,1.9,0,2.9,0c1.1,0,2.3,0.1,2.7-1.2c0.4-1.2-0.8-1.5-1.4-2.2
				c-3.4-3.8-8.2-5.7-12.3-8.7c-7.8-5.8-16.2-10.4-25-14.2c-3.5-1.5-6.7-0.2-8.4,3.1c-1.4,2.7-0.4,5.7,2.6,7.8
				c4.8,3.3,9.7,6.4,14.9,8.8C790.5,173.9,798.4,176.7,806.8,177.2z"/>
			<path class="st12" d="M817.1,432.6c5.6,0,11.2,0,16.8,0c2.8,0,5.6,0,8.4,0.1c-0.5,0.5-1.1,0.6-1.8,0.6c-12.3,0-24.7,0-37-0.1
				c-4.6-1.1-9.4-0.2-14-0.5c-1-0.1-2.5,0.6-2.9-0.6c-0.5-1.2,0.7-2.1,1.5-3c5.9-5.8,10.7-12.5,15.2-19.4
				c6.1-9.3,10.3-19.6,13.3-30.2c3.8-13.1,5.6-26.6,5-40.4c-0.4-10.6-1.8-21.1-4.5-31.3c-4.7-18.2-12.4-35.1-23.8-50.1
				c-6-7.9-12.6-15.4-20.4-21.8c-7-5.7-14.4-10.8-22.4-14.9c-5.7-2.9-11.7-5.5-17.9-7c-10.2-2.4-20.5-3.7-31-2.8
				c-8.6,0.7-16.9,2.3-25,5.2c-9.9,3.5-18.8,8.7-27.2,14.9c-8.1,6-15.3,13-21.7,20.7c-5.9,7.1-11.1,14.7-15.4,22.8
				c-4,7.6-7.3,15.5-10.1,23.6c-3,8.8-5,17.7-6,26.8c-0.8,7.3-1.8,14.5-1.7,21.9c0.1,10.8,2.6,21.2,5,31.6
				c1.7,7.2,4.9,13.9,8.3,20.4c1.6,3.1,2.6,6.6,4.7,9.5c5.4,7.4,10.7,15,17,21.7c0.4,0.5,1.1,0.9,0.9,1.6c-0.3,0.9-1.3,0.6-2,0.6
				c-5.3,0-10.5,0-15.8,0c0.1-1.5-0.6-2.7-1.5-3.8c-10.7-12.8-17.3-27.6-22.5-43.3c-3-9.2-4.5-18.6-5.9-28.2
				c-1-6.8-0.6-13.7-0.7-20.5c-0.2-6.7,1-13.6,2.1-20.3c2.2-14.2,6.5-27.7,12.5-40.7c5-10.9,11.2-21.2,18.7-30.7
				c9.2-11.6,19.8-21.6,32-29.9c13-8.8,27.5-14.2,42.9-17.2c12.1-2.3,24.1-2.1,36-0.1c11.8,2,23.1,6,33.8,11.8
				c16.2,8.9,30,20.9,41.4,35.4c9.7,12.4,17.3,25.9,23,40.7c6,15.5,9.6,31.5,10,48.1c0.1,4.7,0.7,9.3,0.4,14
				c-0.5,6.7-0.7,13.4-2,19.9c-1.9,9.4-4.3,18.7-7.8,27.7c-2.4,6.2-5.5,12.1-8.6,17.9c-3.1,5.7-7.4,10.8-11,16.2
				c-0.5,0.7-1.4,1.2-0.9,2.2c0.5,1,1.5,0.6,2.3,0.6C810.2,432.7,813.7,432.7,817.1,432.6z"/>
			<path class="st12" d="M528.8,307.7c3.7,10.7,9.2,20.7,14.2,30.8c0.8,3.4,3.2,5.9,4.5,9c0.4,1.1,0.9,2.1,1.3,3.2
				c-1,0.8-0.7,2-0.6,3c0.3,12.2,1.8,24.1,5.2,35.9c0.7,2.2,2,4.4,1.2,7c-6.3-6.7-11.5-14.2-16.4-21.9c-3.7-5.7-7.1-11.6-10.6-17.4
				c-2.8-6-5.6-12-8.4-18c0.2-7.1,0.3-14.2,0.7-21.3c0.3-5.3,0.3-10.6,2-15.8c0.5-1.4,0.6-3.4,3-3
				C526.3,302,526.9,305.1,528.8,307.7z"/>
			<path class="st16" d="M554.7,396.6c0.8-2.5-0.6-4.7-1.2-7c-3.4-11.7-4.9-23.7-5.2-35.9c0-1-0.3-2.2,0.6-3c2.9,5,5.8,9.9,8.7,14.9
				c0.4,0.7,0.8,1.5,1.6,2c1.9,4.8,5.2,8.8,7.7,13.2c4.7,8.5,10.4,16.3,16.1,24.2c0.2,0.2,0.5,0.4,0.8,0.6c0,0.7,0.3,1.2,0.8,1.7
				c3.1,3.9,6.3,7.8,9.1,11.9c1.1,1.5,3.8,3,3.1,4.4c-0.9,1.9-3.4-0.5-5.2,0c-6.6-1.8-12.3-5.4-18-9c-4-3.3-7.9-6.7-11.5-10.4
				c-1.2-1.2-2.1-2.7-3.9-3.2C557.5,399,555.4,398.3,554.7,396.6z"/>
			<path class="st17" d="M766.8,433.2c-22.9,0-45.7,0.1-68.6,0.1c-19.9,0-39.7-0.1-59.6-0.1c1-0.9,2.3-0.5,3.4-0.5
				c8.8,0,17.6,0,26.4-0.1c1.1,0,2.3,0.5,3.4-0.6c-0.2-0.3-0.4-0.6-0.6-0.7c-9.9-4.6-18.4-11.3-26-19c-6.9-7-11.9-15.4-16.5-24.2
				c-5.5-10.6-8.2-21.8-9.8-33.3c-1.2-8.8-0.8-18,0.5-26.8c2.1-14.5,6.6-28.2,14-41c5.3-9.1,11.1-17.8,18.5-25.3
				c6.5-6.7,13.8-12.3,22-17.1c15.8-9.3,32.6-11.7,50.3-7.8c14.7,3.3,26.9,11.4,37.8,21.5c8.4,7.8,15.4,17,21,27
				c4.1,7.4,7.9,15,10.3,23.1c2.1,7,3.6,14.2,4.8,21.5c1,6.1,1.1,12.4,0.9,18.4c-0.3,10.2-2.7,20.2-5.9,30
				c-3.6,11.2-10,20.4-16.7,29.7c-1.1,1.5-2.2,3-3.5,4.1c-7.8,6.8-15,14.5-24.7,18.7c-0.5,0.2-1,0.6-0.8,1.2
				c0.2,0.7,0.9,0.6,1.4,0.6c2.7,0,5.4-0.1,8.1,0C760,432.9,763.4,432,766.8,433.2z M655.3,355.1c-0.1,4.3-0.1,7.4,1.9,10.3
				c2.3,3.5,4.1,7.4,5.8,11.3c2,5,4.3,9.6,9.6,11.8c1,0.4,1.9,1.1,2.6,1.9c2.2,2.6,5,4.3,8.1,5.5c3.7,1.4,7.4,2.8,11,4.3
				c9.8,4,19.6,4.6,29.7,1.1c6.3-2.2,12-5.7,16.8-10.2c2.5-2.4,6.1-3.5,8-6.2c3.2-4.5,5.8-9.4,8.2-14.4c2.4-4.9,4.8-9.9,4.5-15.6
				c-0.1-2,0.2-4,1.4-5.8c0.6-0.9,0.5-2,0-3.1c-0.6-1.3-0.7-2.7-0.7-4.1c-0.1-9.8-1.8-19.2-6.2-28.1c-0.7-1.4-1.7-2.8-2-4.3
				c-1.2-5.1-4.5-9.1-7.4-13.2c-3.5-5.1-8.3-9.1-13-13.2c-5.1-4.4-10.1-8.8-16.2-11.9c-6.7-3.4-12.9-3-19.2,0.6
				c-7.3,4.2-13.8,9.5-19.9,15.3c-5.1,4.9-9.8,9.8-12.9,16.3c-2.6,5.5-4.6,11.3-7.3,16.7c-2.5,4.9-2.6,10.3-4.2,15.4
				c-0.2,0.6-0.1,1.3,0,1.9C655.2,343.7,654,350,655.3,355.1z"/>
			<path class="st16" d="M766.8,433.2c-3.3-1.2-6.8-0.3-10.2-0.5c-2.7-0.1-5.4,0-8.1,0c-0.5,0-1.2,0.1-1.4-0.6
				c-0.2-0.7,0.3-1,0.8-1.2c9.8-4.2,16.9-11.8,24.7-18.7c1.4-1.2,2.5-2.7,3.5-4.1c6.7-9.3,13.1-18.5,16.7-29.7
				c3.1-9.9,5.6-19.8,5.9-30c0.1-6.1,0-12.3-0.9-18.4c-1.1-7.3-2.7-14.5-4.8-21.5c-2.4-8.1-6.2-15.7-10.3-23.1
				c-5.6-10.1-12.6-19.2-21-27c-10.9-10.1-23-18.3-37.8-21.5c-17.7-3.9-34.4-1.5-50.3,7.8c-8.1,4.8-15.4,10.4-22,17.1
				c-7.4,7.5-13.3,16.2-18.5,25.3c-7.4,12.8-11.9,26.5-14,41c-1.3,8.9-1.7,18-0.5,26.8c1.6,11.5,4.3,22.7,9.8,33.3
				c4.6,8.8,9.6,17.2,16.5,24.2c7.6,7.7,16.1,14.4,26,19c0.2,0.1,0.4,0.4,0.6,0.7c-1,1.1-2.3,0.6-3.4,0.6c-8.8,0.1-17.6,0-26.4,0.1
				c-1.1,0-2.4-0.4-3.4,0.5c-8.8,0-17.7,0-26.5,0c0-0.2,0-0.3,0-0.5c0.2,0,0.4,0,0.6,0c5.3,0,10.5,0,15.8,0c0.7,0,1.7,0.3,2-0.6
				c0.2-0.7-0.5-1.1-0.9-1.6c-6.4-6.7-11.6-14.2-17-21.7c-2.1-2.9-3.1-6.4-4.7-9.5c-3.4-6.5-6.6-13.3-8.3-20.4
				c-2.4-10.4-4.9-20.7-5-31.6c-0.1-7.4,0.9-14.6,1.7-21.9c1-9.1,3-18.1,6-26.8c2.8-8.1,6-16,10.1-23.6c4.3-8.2,9.6-15.7,15.4-22.8
				c6.4-7.8,13.6-14.7,21.7-20.7c8.4-6.2,17.4-11.4,27.2-14.9c8.1-2.9,16.4-4.4,25-5.2c10.5-0.9,20.9,0.4,31,2.8
				c6.2,1.5,12.2,4,17.9,7c8,4.1,15.4,9.2,22.4,14.9c7.7,6.4,14.3,13.8,20.4,21.8c11.4,15,19.1,31.9,23.8,50.1
				c2.7,10.2,4,20.7,4.5,31.3c0.6,13.8-1.2,27.3-5,40.4c-3.1,10.6-7.3,20.9-13.3,30.2c-4.5,6.9-9.4,13.5-15.2,19.4
				c-0.8,0.8-2,1.8-1.5,3c0.5,1.2,1.9,0.5,2.9,0.6c4.7,0.3,9.4-0.6,14,0.5C791.3,433.2,779,433.2,766.8,433.2z"/>
			<path class="st7" d="M558,400.9c1.8,0.5,2.7,2,3.9,3.2c3.6,3.7,7.5,7.2,11.5,10.4c0.4,4.7,3.3,8.4,5.6,12.2
				c1.1,1.8,2.4,3.5,2.2,5.8c-3.4,0-6.9,0-10.3,0c0.3-2.9-1.3-5.1-2.6-7.4C563.9,417.5,560.5,409.4,558,400.9z"/>
			<path class="st13" d="M612.7,432.7c-0.2,0-0.4,0-0.6,0c-5.4,0-10.7,0-16.1,0c-0.7-3.4-4-5.5-4.5-9c1.8-0.5,4.3,1.9,5.2,0
				c0.7-1.4-2-2.9-3.1-4.4c-2.9-4.1-6-8-9.1-11.9c-0.4-0.5-0.7-1-0.8-1.7c0.5-4.2-1.9-7.7-3.2-11.3c-3.4-9.2-5.5-18.6-7.1-28.2
				c-1.6-9.6-2.3-19.3-2-29c0.5-13.4,2.4-26.5,5.9-39.5c3.3-12.5,8.1-24.4,14.1-35.7c5.8-10.9,12.7-21,20.8-30.4
				c9.9-11.6,21.6-21,34.4-29.1c13.1-8.3,27.5-13.2,42.8-15.6c7.3-1.1,14.6-2.2,22-1.8c15.9,0.9,31.4,3.9,45.9,10.7
				c12.8,6,24.4,13.7,34.8,23.2c17,15.6,30.4,33.7,39.6,55c5.2,12,8.7,24.3,11.5,37c2.9,13.5,3.5,27.2,2.8,40.9
				c-0.7,12.4-2.7,24.6-6.5,36.4c-3.4,10.6-7.5,21-13.5,30.5c-2.3,3.6-5,6.9-7.5,10.4c-0.8,1.1-1.4,2.2-1.3,3.5c-3.4,0-6.9,0-10.3,0
				c-0.8,0-1.8,0.4-2.3-0.6c-0.5-1,0.4-1.5,0.9-2.2c3.6-5.4,7.9-10.4,11-16.2c3.2-5.8,6.2-11.7,8.6-17.9c3.5-9,6-18.3,7.8-27.7
				c1.3-6.5,1.5-13.3,2-19.9c0.4-4.8-0.3-9.4-0.4-14c-0.4-16.6-4.1-32.6-10-48.1c-5.7-14.7-13.3-28.3-23-40.7
				c-11.4-14.5-25.1-26.4-41.4-35.4c-10.6-5.8-21.9-9.8-33.8-11.8c-11.9-2-23.9-2.2-36,0.1c-15.5,3-29.9,8.3-42.9,17.2
				c-12.2,8.3-22.9,18.3-32,29.9c-7.5,9.5-13.6,19.8-18.7,30.7c-6,12.9-10.3,26.5-12.5,40.7c-1,6.8-2.3,13.6-2.1,20.3
				c0.2,6.8-0.2,13.7,0.7,20.5c1.3,9.5,2.8,19,5.9,28.2c5.2,15.7,11.8,30.5,22.5,43.3C612.1,430,612.8,431.2,612.7,432.7z"/>
			<path class="st15" d="M591.4,423.6c0.5,3.5,3.8,5.6,4.5,9c-4.9,0-9.9,0-14.8,0c0.2-2.3-1.1-4-2.2-5.8c-2.3-3.9-5.1-7.5-5.6-12.2
				C579.1,418.2,584.8,421.9,591.4,423.6z"/>
			<path class="st13" d="M820.8,223.1c-6.1-1.1-12.1-3.7-17.8-6.9c-10.1-5.7-18.2-13.8-25-23.1c-2-2.8-3.4-6.1-5-9.3
				c-0.6-1.2-0.9-2.6,0.3-3.6c1.1-0.9,2.3-0.3,3.3,0.3c8.1,4.6,15.9,9.5,23,15.6c6.8,5.8,12.7,12.4,19.1,18.6
				c1.5,1.5,2.8,3.2,4.2,4.8c0.6,0.8,1.5,1.8,1,2.9C823.4,223.5,822.1,222.9,820.8,223.1z"/>
			<path class="st13" d="M806.8,177.2c-8.5-0.5-16.3-3.3-23.9-6.8c-5.3-2.4-10.2-5.5-14.9-8.8c-3-2.1-4-5.1-2.6-7.8
				c1.7-3.2,4.9-4.6,8.4-3.1c8.8,3.9,17.3,8.5,25,14.2c4,3,8.8,4.9,12.3,8.7c0.6,0.7,1.8,1,1.4,2.2c-0.4,1.3-1.6,1.2-2.7,1.2
				C808.8,177.2,807.8,177.2,806.8,177.2z"/>
			<path class="st1" d="M655.3,355.1c-1.4-5-0.2-11.4-1.3-17.6c-0.1-0.6-0.2-1.3,0-1.9c1.6-5.1,1.7-10.5,4.2-15.4
				c2.8-5.4,4.7-11.2,7.3-16.7c3.1-6.5,7.8-11.5,12.9-16.3c6.1-5.8,12.6-11.1,19.9-15.3c6.3-3.6,12.5-4,19.2-0.6
				c6.1,3.1,11.1,7.5,16.2,11.9c4.6,4.1,9.4,8.1,13,13.2c2.9,4.1,6.2,8.1,7.4,13.2c0.4,1.5,1.3,2.9,2,4.3c4.4,8.8,6.1,18.3,6.2,28.1
				c0,1.4,0.1,2.8,0.7,4.1c0.4,1.1,0.6,2.1,0,3.1c-1.2,1.8-1.5,3.8-1.4,5.8c0.3,5.7-2.1,10.7-4.5,15.6c-2.4,5-5,9.9-8.2,14.4
				c-1.9,2.7-5.5,3.8-8,6.2c-4.8,4.5-10.5,8-16.8,10.2c-10.1,3.6-19.9,2.9-29.7-1.1c-3.7-1.5-7.3-2.9-11-4.3
				c-3.1-1.2-5.9-2.9-8.1-5.5c-0.7-0.8-1.6-1.5-2.6-1.9c-5.3-2.2-7.6-6.8-9.6-11.8c-1.6-3.9-3.5-7.8-5.8-11.3
				C655.2,362.4,655.2,359.4,655.3,355.1z"/>
		</g>
	</g>
	<polygon class="st18" points="597.3,336.1 352.1,578.7 380.8,607.7 653.7,394.1 633.7,373.9 409,550.1 610.1,350.1 	"/>
	<polygon class="st18" points="405.5,631.6 679.3,420 710.1,452.2 679.1,556.7 569.3,663.4 465.5,694.3 447.5,676.1 665.7,466.4 
		426.5,651.8 	"/>
	<path class="st19" d="M610.1,350.1L405.8,553.5l227.9-179.6c0,0-7.2,2-16.5-7.3S610.1,350.1,610.1,350.1z"/>
	<path class="st19" d="M653.7,394.1L380.8,607.7c0,0,8.8-2.5,15.9,6.8c7.2,9.3,8.7,17.1,8.7,17.1L679.3,420c0,0-9.3,0-17-7.8
		C654.7,404.4,653.7,394.1,653.7,394.1z"/>
	<path class="st19" d="M426.5,651.8l239.2-185.4L447.5,676.1c0,0,3.1-8.2-5.6-16C433.2,652.3,426.5,651.8,426.5,651.8z"/>
	<polygon class="st20" points="680.3,553.5 568,664.6 613.4,651.3 668.3,597.9 	"/>
	
		<radialGradient id="SVGID_1_" cx="511.4299" cy="208.359" r="256.6717" fx="510.7174" fy="411.6624" gradientTransform="matrix(-0.7108 0.7034 0.7104 0.718 538.4844 -204.4048)" gradientUnits="userSpaceOnUse">
		<stop  offset="0" style="stop-color:#FFFFFF"/>
		<stop  offset="0.1464" style="stop-color:#FFFFFC"/>
		<stop  offset="0.2435" style="stop-color:#FFFEF3"/>
		<stop  offset="0.3263" style="stop-color:#FFFDE4"/>
		<stop  offset="0.4011" style="stop-color:#FEFBCF"/>
		<stop  offset="0.4705" style="stop-color:#FEF8B3"/>
		<stop  offset="0.5359" style="stop-color:#FEF692"/>
		<stop  offset="0.5982" style="stop-color:#FDF269"/>
		<stop  offset="0.6564" style="stop-color:#FDEE3C"/>
		<stop  offset="0.7081" style="stop-color:#FCEA0D"/>
		<stop  offset="0.9788" style="stop-color:#DAAB0A"/>
	</radialGradient>
	<path class="st21" d="M351.7,579.7c-78,7-158.4-19.5-217.8-79.5C28.4,393.5,29.3,221.5,136,115.9s278.7-104.6,384.3,2
		c59.4,60,85.1,140.7,77.2,218.6L351.7,579.7z"/>
	<g class="st22">
		
			<image style="overflow:visible;" width="668" height="1022" xlink:href="A9E32698.png"  transform="matrix(0.24 0 0 0.24 48.8756 137.3761)">
		</image>
	</g>
	<g class="st22">
		
			<image style="overflow:visible;" width="565" height="962" xlink:href="A9E32699.png"  transform="matrix(0.24 0 0 0.24 73.3556 221.6161)">
		</image>
	</g>
	<g id="Layer_3">
		<path class="st23" d="M556.3,363.8c0,0,31.5-45.5,5.1-132.9s-69.5-106.4-69.5-106.4s32,55.7,45.6,119.3
			C551.1,307.3,556.3,363.8,556.3,363.8z"/>
	</g>
</g>
<g id="Layer_5">
	<g>
		<g>
			<g>
				<path class="st24" d="M118.1,530.7c-54.3,0-88.2-23-101-68.5l-0.9-3.2l67.9-12.2l0.8,2.6c4.8,16.2,17,24.1,37.3,24.1
					c22.2,0,22.2-7.8,22.2-10.4c0-3.7-1.4-6.4-4.5-8.4c-3.5-2.4-10.2-4.5-19.7-6.5C81,440.8,56.4,431.2,45,418.8
					c-11.3-12.3-17-27-17-43.6c0-21.3,8.2-39.3,24.4-53.4c16-14,39.3-21.1,69.1-21.1c45.4,0,75.9,18.6,90.6,55.2l1.2,3l-61.1,18.5
					l-1-2.6c-5.3-13.4-15.8-19.9-32.1-19.9c-18.8,0-18.8,7.7-18.8,10.5c0,3,1.2,5.2,3.6,6.9c2,1.4,6.8,3.5,18.1,5.9
					c26,5.5,44.9,10.5,55.9,14.7c11.4,4.4,21.1,12.1,28.8,22.8c7.7,10.7,11.5,23.5,11.5,38c0,22.9-9.4,41.7-27.9,55.9
					C171.9,523.6,147.7,530.7,118.1,530.7z"/>
				<path class="st1" d="M121.5,303.6c44.3,0,73.5,17.8,87.8,53.4L154,373.7c-5.7-14.5-17.4-21.8-34.9-21.8
					c-14.6,0-21.8,4.5-21.8,13.5c0,4,1.6,7.2,4.9,9.4c3.3,2.2,9.7,4.4,19.1,6.4c26,5.5,44.5,10.4,55.4,14.6
					c10.9,4.2,20.1,11.5,27.4,21.7c7.3,10.3,11,22.3,11,36.3c0,22-8.9,39.8-26.8,53.5c-17.8,13.7-41.3,20.5-70.2,20.5
					c-53,0-85.7-22.1-98.1-66.3l62-11.2c5.2,17.5,18.6,26.3,40.1,26.3c16.8,0,25.2-4.5,25.2-13.4c0-4.7-1.9-8.3-5.8-10.9
					c-3.9-2.6-10.8-4.9-20.8-6.9c-38.1-7.3-62.6-16.9-73.4-28.6C36.4,405,31,391.1,31,375.2c0-20.5,7.8-37.5,23.3-51.1
					C69.9,310.4,92.3,303.6,121.5,303.6 M121.5,297.6c-30.6,0-54.5,7.4-71.1,21.9C33.5,334.2,25,353,25,375.2
					c0,17.4,6,32.8,17.8,45.6c11.8,12.9,36.9,22.8,76.7,30.5c11.4,2.3,16.4,4.5,18.6,6c2.2,1.5,3.2,3.3,3.2,5.9
					c0,1.9-0.5,3.4-3.1,4.7c-2.3,1.2-6.9,2.6-16.1,2.6c-19,0-29.9-7-34.4-22l-1.5-5.1l-5.3,1l-62,11.2l-6.5,1.2l1.8,6.4
					c13.2,46.9,48.1,70.6,103.9,70.6c30.2,0,55.1-7.3,73.9-21.7c19.3-14.8,29.1-34.4,29.1-58.2c0-15.1-4.1-28.5-12.1-39.8
					c-8-11.2-18.1-19.2-30.1-23.8c-11.4-4.4-29.8-9.3-56.4-14.9c-11.3-2.4-15.5-4.5-17-5.5c-1.6-1.1-2.3-2.4-2.3-4.4
					c0-2.1,0-7.5,15.8-7.5c15.1,0,24.5,5.7,29.3,18l2,5.1l5.3-1.6l55.3-16.7l6.3-1.9l-2.4-6.1C199.6,316.8,168.2,297.6,121.5,297.6
					L121.5,297.6z"/>
			</g>
			<g>
				<polygon class="st24" points="370.5,527.4 297,405.4 297.8,527.4 237.6,527.4 237.6,304 305.4,304 370,407 369.2,304 429.5,304 
					429.5,527.4 				"/>
				<path class="st1" d="M426.5,307v217.4h-54.3l-78.3-129.9l0.8,129.9h-54.2V307h63.1L373,417.6L372.2,307H426.5 M432.5,301h-6
					h-54.3h-6l0,6l0.7,89.4l-58.1-92.7L307,301h-3.3h-63.1h-6v6v217.4v6h6h54.2h6l0-6l-0.7-108.1l67,111.2l1.7,2.9h3.4h54.3h6v-6
					V307V301L432.5,301z"/>
			</g>
			<g>
				<rect x="461.4" y="304" class="st24" width="72.7" height="223.4"/>
				<path class="st1" d="M531.2,307v217.4h-66.7V307H531.2 M537.2,301h-6h-66.7h-6v6v217.4v6h6h66.7h6v-6V307V301L537.2,301z"/>
			</g>
			<g>
				<polygon class="st24" points="566.1,527.4 566.1,304 638.8,304 638.8,468 724.5,468 724.5,527.4 				"/>
				<path class="st1" d="M635.8,307V471h85.7v53.4H569.1V307H635.8 M641.8,301h-6h-66.7h-6v6v217.4v6h6h152.4h6v-6V471v-6h-6h-79.7
					V307V301L641.8,301z"/>
			</g>
			<g>
				<polygon class="st24" points="741.8,527.4 741.8,304 814.5,304 814.5,468 900.2,468 900.2,527.4 				"/>
				<path class="st1" d="M811.5,307V471h85.7v53.4H744.8V307H811.5 M817.5,301h-6h-66.7h-6v6v217.4v6h6h152.4h6v-6V471v-6h-6h-79.7
					V307V301L817.5,301z"/>
			</g>
			<g>
				<path class="st24" d="M1038,527.4l-31.8-83.1h-16v83.1h-72.7V304H1034c25.7,0,46,6.2,60.3,18.3c14.5,12.3,21.8,28.7,21.8,48.7
					c0,13-2.7,24.6-8,34.6c-5.1,9.6-15.1,18.2-29.7,25.5l40,96.3H1038z M1015.7,391.7c7.7,0,14-1.6,18.5-4.7c4.3-2.9,6.3-7.2,6.3-13
					c0-7.7-2.3-17.9-22.6-17.9h-27.7v35.6H1015.7z"/>
				<path class="st1" d="M1034,307c25.1,0,44.5,5.9,58.4,17.6c13.9,11.7,20.8,27.2,20.8,46.4c0,12.5-2.5,23.6-7.6,33.2
					c-5.1,9.6-15.4,18.1-30.9,25.4l39.3,94.8h-74l-31.8-83.1h-21v83.1h-66.7V307H1034 M987.2,394.7h28.5c8.4,0,15.1-1.8,20.2-5.3
					c5.1-3.5,7.6-8.7,7.6-15.5c0-13.9-8.5-20.9-25.6-20.9h-30.7V394.7 M1034,301H920.5h-6v6v217.4v6h6h66.7h6v-6v-77.1h10.9
					l30.3,79.3l1.5,3.9h4.1h74h9l-3.4-8.3l-37.2-89.6c13.8-7.3,23.4-15.9,28.5-25.5c5.5-10.4,8.3-22.6,8.3-36c0-21-7.7-38.1-22.9-51
					C1081.4,307.4,1060.5,301,1034,301L1034,301z M993.2,359.2h24.7c17.3,0,19.6,7.5,19.6,14.9c0,4.8-1.6,8.1-5,10.5
					c-4.1,2.8-9.7,4.2-16.8,4.2h-22.5V359.2L993.2,359.2z"/>
			</g>
			<g>
				<rect x="1142.6" y="304" class="st24" width="72.7" height="223.4"/>
				<path class="st1" d="M1212.3,307v217.4h-66.7V307H1212.3 M1218.3,301h-6h-66.7h-6v6v217.4v6h6h66.7h6v-6V307V301L1218.3,301z"/>
			</g>
			<g>
				<polygon class="st24" points="1371.3,527.4 1335.1,448.2 1316.1,475.2 1316.1,527.4 1247.2,527.4 1247.2,304 1316.1,304 
					1316.1,387 1371.5,304 1438.8,304 1381.6,386.8 1451.1,527.4 				"/>
				<path class="st1" d="M1433.1,307l-54.9,79.6l68.1,137.9h-73l-37.6-82.2l-22.5,32v50.2h-62.9V307h62.9v89.9l60-89.9H1433.1
					 M1444.5,301h-11.4h-60h-3.2l-1.8,2.7l-49,73.4V307v-6h-6h-62.9h-6v6v217.4v6h6h62.9h6v-6v-48.3l15.4-21.9l33.2,72.7l1.6,3.5
					h3.9h73h9.7l-4.3-8.7L1385.1,387l52.9-76.7L1444.5,301L1444.5,301z"/>
			</g>
		</g>
	</g>
</g>
</svg>
